<?xml version="1.0" encoding="UTF-8" standalone="no"?>
<!-- Generator: Adobe Illustrator 19.0.0, SVG Export Plug-In . SVG Version: 6.00 Build 0)  -->

<svg
   version="1.1"
   id="Layer_1"
   x="0px"
   y="0px"
   viewBox="0 0 623.40088 512"
   xml:space="preserve"
   sodipodi:docname="smartphone-svgrepo-com.svg"
   width="623.40088"
   height="512"
   inkscape:version="1.1 (ce6663b3b7, 2021-05-25)"
   xmlns:inkscape="http://www.inkscape.org/namespaces/inkscape"
   xmlns:sodipodi="http://sodipodi.sourceforge.net/DTD/sodipodi-0.dtd"
   xmlns="http://www.w3.org/2000/svg"
   xmlns:svg="http://www.w3.org/2000/svg"><defs
   id="defs1105" /><sodipodi:namedview
   id="namedview1103"
   pagecolor="#ffffff"
   bordercolor="#666666"
   borderopacity="1.0"
   inkscape:pageshadow="2"
   inkscape:pageopacity="0.0"
   inkscape:pagecheckerboard="0"
   showgrid="false"
   inkscape:zoom="1.1656213"
   inkscape:cx="305.84547"
   inkscape:cy="196.8907"
   inkscape:window-width="1920"
   inkscape:window-height="1016"
   inkscape:window-x="1920"
   inkscape:window-y="27"
   inkscape:window-maximized="1"
   inkscape:current-layer="Layer_1" />
<path
   style="fill:#707384"
   d="M 238.345,0 H 26.483 C 11.857,0 0,11.857 0,26.483 V 485.517 C 0,500.143 11.857,512 26.483,512 h 211.862 c 14.626,0 26.483,-11.857 26.483,-26.483 V 26.483 C 264.828,11.857 252.971,0 238.345,0 Z M 97.104,35.31 c 0,-4.875 3.953,-8.828 8.828,-8.828 h 52.966 c 4.875,0 8.828,3.953 8.828,8.828 v 0 c 0,4.875 -3.953,8.828 -8.828,8.828 h -52.966 c -4.876,0 -8.828,-3.953 -8.828,-8.828 z M 70.621,26.483 c 4.875,0 8.828,3.953 8.828,8.828 0,4.875 -3.953,8.828 -8.828,8.828 -4.875,0 -8.828,-3.953 -8.828,-8.828 0,-4.875 3.953,-8.828 8.828,-8.828 z m 61.793,467.862 c -9.751,0 -17.655,-7.905 -17.655,-17.655 0,-9.751 7.904,-17.655 17.655,-17.655 9.751,0 17.655,7.904 17.655,17.655 0,9.75 -7.904,17.655 -17.655,17.655 z M 247.173,335.448 V 441.379 H 17.655 V 335.448 70.621 h 229.517 v 264.827 z"
   id="path1012" />
<path
   style="fill:#63afdb"
   d="m 17.655,335.448 h 70.621 c 0,-4.875 3.953,-8.828 8.828,-8.828 4.875,0 8.828,3.953 8.828,8.828 h 17.655 c 0,-4.875 3.953,-8.828 8.828,-8.828 4.875,0 8.828,3.953 8.828,8.828 h 17.655 c 0,-4.875 3.953,-8.828 8.828,-8.828 4.875,0 8.828,3.953 8.828,8.828 h 70.621 V 70.621 H 17.655 Z M 176.552,114.759 c 0,-4.875 3.953,-8.828 8.828,-8.828 h 35.31 c 4.875,0 8.828,3.953 8.828,8.828 v 35.31 c 0,4.875 -3.953,8.828 -8.828,8.828 h -35.31 c -4.875,0 -8.828,-3.953 -8.828,-8.828 z m 0,70.62 c 0,-4.875 3.953,-8.828 8.828,-8.828 h 35.31 c 4.875,0 8.828,3.953 8.828,8.828 v 35.31 c 0,4.875 -3.953,8.828 -8.828,8.828 h -35.31 c -4.875,0 -8.828,-3.953 -8.828,-8.828 z m 0,70.621 c 0,-4.875 3.953,-8.828 8.828,-8.828 h 35.31 c 4.875,0 8.828,3.953 8.828,8.828 v 35.31 c 0,4.875 -3.953,8.828 -8.828,8.828 h -35.31 c -4.875,0 -8.828,-3.953 -8.828,-8.828 z M 105.931,114.759 c 0,-4.875 3.953,-8.828 8.828,-8.828 h 35.31 c 4.875,0 8.828,3.953 8.828,8.828 v 35.31 c 0,4.875 -3.953,8.828 -8.828,8.828 h -35.31 c -4.875,0 -8.828,-3.953 -8.828,-8.828 z m 0,70.62 c 0,-4.875 3.953,-8.828 8.828,-8.828 h 35.31 c 4.875,0 8.828,3.953 8.828,8.828 v 35.31 c 0,4.875 -3.953,8.828 -8.828,8.828 h -35.31 c -4.875,0 -8.828,-3.953 -8.828,-8.828 z m 0,70.621 c 0,-4.875 3.953,-8.828 8.828,-8.828 h 35.31 c 4.875,0 8.828,3.953 8.828,8.828 v 35.31 c 0,4.875 -3.953,8.828 -8.828,8.828 h -35.31 c -4.875,0 -8.828,-3.953 -8.828,-8.828 z M 35.311,114.759 c 0,-4.875 3.953,-8.828 8.828,-8.828 h 35.31 c 4.875,0 8.828,3.953 8.828,8.828 v 35.31 c 0,4.875 -3.953,8.828 -8.828,8.828 h -35.31 c -4.875,0 -8.828,-3.953 -8.828,-8.828 z m 0,70.62 c 0,-4.875 3.953,-8.828 8.828,-8.828 h 35.31 c 4.875,0 8.828,3.953 8.828,8.828 v 35.31 c 0,4.875 -3.953,8.828 -8.828,8.828 h -35.31 c -4.875,0 -8.828,-3.953 -8.828,-8.828 z m 0,70.621 c 0,-4.875 3.953,-8.828 8.828,-8.828 h 35.31 c 4.875,0 8.828,3.953 8.828,8.828 v 35.31 c 0,4.875 -3.953,8.828 -8.828,8.828 h -35.31 c -4.875,0 -8.828,-3.953 -8.828,-8.828 z"
   id="path1014" />
<path
   style="fill:#468cbe"
   d="m 167.724,344.276 c -4.875,0 -8.828,-3.953 -8.828,-8.828 h -17.655 c 0,4.875 -3.953,8.828 -8.828,8.828 -4.875,0 -8.828,-3.953 -8.828,-8.828 H 105.93 c 0,4.875 -3.953,8.828 -8.828,8.828 -4.875,0 -8.828,-3.953 -8.828,-8.828 H 17.653 V 441.379 H 247.17 V 335.448 h -70.621 c 0.003,4.875 -3.95,8.828 -8.825,8.828 z m -79.448,61.793 c 0,4.875 -3.953,8.828 -8.828,8.828 h -35.31 c -4.875,0 -8.828,-3.953 -8.828,-8.828 v -35.31 c 0,-4.875 3.953,-8.828 8.828,-8.828 h 35.31 c 4.875,0 8.828,3.953 8.828,8.828 z m 70.621,0 c 0,4.875 -3.953,8.828 -8.828,8.828 h -35.31 c -4.875,0 -8.828,-3.953 -8.828,-8.828 v -35.31 c 0,-4.875 3.953,-8.828 8.828,-8.828 h 35.31 c 4.875,0 8.828,3.953 8.828,8.828 z m 26.483,-44.138 h 35.31 c 4.875,0 8.828,3.953 8.828,8.828 v 35.31 c 0,4.875 -3.953,8.828 -8.828,8.828 h -35.31 c -4.875,0 -8.828,-3.953 -8.828,-8.828 v -35.31 c 0,-4.875 3.952,-8.828 8.828,-8.828 z"
   id="path1016" />
<g
   id="g1024"
   transform="translate(-123.586)">
	<path
   style="fill:#464655"
   d="m 229.517,44.138 h 52.966 c 4.875,0 8.828,-3.953 8.828,-8.828 v 0 c 0,-4.875 -3.953,-8.828 -8.828,-8.828 h -52.966 c -4.875,0 -8.828,3.953 -8.828,8.828 v 0 c 0.001,4.875 3.953,8.828 8.828,8.828 z"
   id="path1018" />
	<circle
   style="fill:#464655"
   cx="194.207"
   cy="35.310001"
   r="8.8280001"
   id="circle1020" />
	<circle
   style="fill:#464655"
   cx="256"
   cy="476.69"
   r="17.655001"
   id="circle1022" />
</g>
<path
   style="fill:#63afdb"
   d="m 150.069,361.931 h -35.31 c -4.875,0 -8.828,3.953 -8.828,8.828 v 35.31 c 0,4.875 3.953,8.828 8.828,8.828 h 35.31 c 4.875,0 8.828,-3.953 8.828,-8.828 v -35.31 c 0,-4.875 -3.953,-8.828 -8.828,-8.828 z m -17.655,44.138 c -9.751,0 -17.655,-7.905 -17.655,-17.655 0,-9.751 7.904,-17.655 17.655,-17.655 9.751,0 17.655,7.904 17.655,17.655 0,9.75 -7.904,17.655 -17.655,17.655 z"
   id="path1026" />
<path
   style="fill:#ff6469"
   d="m 176.552,406.069 c 0,4.875 3.953,8.828 8.828,8.828 h 35.31 c 4.875,0 8.828,-3.953 8.828,-8.828 v -35.31 c 0,-4.875 -3.953,-8.828 -8.828,-8.828 h -35.31 c -4.875,0 -8.828,3.953 -8.828,8.828 z"
   id="path1028" />
<path
   style="fill:#00dccd"
   d="m 79.448,361.931 h -35.31 c -4.875,0 -8.828,3.953 -8.828,8.828 v 35.31 c 0,4.875 3.953,8.828 8.828,8.828 h 35.31 c 4.875,0 8.828,-3.953 8.828,-8.828 v -35.31 c 0,-4.875 -3.952,-8.828 -8.828,-8.828 z"
   id="path1030" />
<path
   style="fill:#00aa00"
   d="m 114.759,300.138 h 35.31 c 4.875,0 8.828,-3.953 8.828,-8.828 V 256 c 0,-4.875 -3.953,-8.828 -8.828,-8.828 h -35.31 c -4.875,0 -8.828,3.953 -8.828,8.828 v 35.31 c 0,4.875 3.953,8.828 8.828,8.828 z"
   id="path1032" />
<path
   style="fill:#ffffff"
   d="m 185.38,300.138 h 35.31 c 4.875,0 8.828,-3.953 8.828,-8.828 V 256 c 0,-4.875 -3.953,-8.828 -8.828,-8.828 h -35.31 c -4.875,0 -8.828,3.953 -8.828,8.828 v 35.31 c 0,4.875 3.952,8.828 8.828,8.828 z m 0,-26.483 c 0,-4.875 3.953,-8.828 8.828,-8.828 h 17.655 c 4.875,0 8.828,3.953 8.828,8.828 v 0 c 0,4.875 -3.953,8.828 -8.828,8.828 h -17.655 c -4.876,0 -8.828,-3.953 -8.828,-8.828 z"
   id="path1034" />
<path
   style="fill:#468cbe"
   d="m 44.138,300.138 h 35.31 c 4.875,0 8.828,-3.953 8.828,-8.828 V 256 c 0,-4.875 -3.953,-8.828 -8.828,-8.828 h -35.31 c -4.875,0 -8.828,3.953 -8.828,8.828 v 35.31 c 10e-4,4.875 3.953,8.828 8.828,8.828 z m 0,-26.483 c 0,-4.875 3.953,-8.828 8.828,-8.828 h 17.655 c 4.875,0 8.828,3.953 8.828,8.828 v 0 c 0,4.875 -3.953,8.828 -8.828,8.828 H 52.966 c -4.875,0 -8.828,-3.953 -8.828,-8.828 z"
   id="path1036" />
<path
   style="fill:#464655"
   d="m 114.759,229.517 h 35.31 c 4.875,0 8.828,-3.953 8.828,-8.828 v -35.31 c 0,-4.875 -3.953,-8.828 -8.828,-8.828 h -35.31 c -4.875,0 -8.828,3.953 -8.828,8.828 v 35.31 c 0,4.876 3.953,8.828 8.828,8.828 z m 0,-26.483 c 0,-4.875 3.953,-8.828 8.828,-8.828 h 17.655 c 4.875,0 8.828,3.953 8.828,8.828 v 0 c 0,4.875 -3.953,8.828 -8.828,8.828 h -17.655 c -4.876,0 -8.828,-3.952 -8.828,-8.828 z"
   id="path1038" />
<path
   style="fill:#ffa055"
   d="m 185.38,229.517 h 35.31 c 4.875,0 8.828,-3.953 8.828,-8.828 v -35.31 c 0,-4.875 -3.953,-8.828 -8.828,-8.828 h -35.31 c -4.875,0 -8.828,3.953 -8.828,8.828 v 35.31 c 0,4.876 3.952,8.828 8.828,8.828 z"
   id="path1040" />
<path
   style="fill:#a0d778"
   d="m 44.138,229.517 h 35.31 c 4.875,0 8.828,-3.953 8.828,-8.828 v -35.31 c 0,-4.875 -3.953,-8.828 -8.828,-8.828 h -35.31 c -4.875,0 -8.828,3.953 -8.828,8.828 v 35.31 c 10e-4,4.876 3.953,8.828 8.828,8.828 z m 17.655,-44.138 c 9.751,0 17.655,7.904 17.655,17.655 0,9.75 -7.904,17.655 -17.655,17.655 -9.751,0 -17.655,-7.905 -17.655,-17.655 0,-9.751 7.904,-17.655 17.655,-17.655 z"
   id="path1042" />
<path
   style="fill:#ff6469"
   d="m 114.759,158.897 h 35.31 c 4.875,0 8.828,-3.953 8.828,-8.828 v -35.31 c 0,-4.875 -3.953,-8.828 -8.828,-8.828 h -35.31 c -4.875,0 -8.828,3.953 -8.828,8.828 v 35.31 c 0,4.875 3.953,8.828 8.828,8.828 z"
   id="path1044" />
<path
   style="fill:#00dccd"
   d="m 185.38,158.897 h 35.31 c 4.875,0 8.828,-3.953 8.828,-8.828 v -35.31 c 0,-4.875 -3.953,-8.828 -8.828,-8.828 h -35.31 c -4.875,0 -8.828,3.953 -8.828,8.828 v 35.31 c 0,4.875 3.952,8.828 8.828,8.828 z m 17.655,-44.138 c 9.751,0 17.655,7.904 17.655,17.655 0,9.75 -7.904,17.655 -17.655,17.655 -9.751,0 -17.655,-7.905 -17.655,-17.655 0,-9.751 7.904,-17.655 17.655,-17.655 z"
   id="path1046" />
<g
   id="g1054"
   transform="translate(-123.586)">
	<path
   style="fill:#ffdc69"
   d="m 167.724,158.897 h 35.31 c 4.875,0 8.828,-3.953 8.828,-8.828 v -35.31 c 0,-4.875 -3.953,-8.828 -8.828,-8.828 h -35.31 c -4.875,0 -8.828,3.953 -8.828,8.828 v 35.31 c 0.001,4.875 3.953,8.828 8.828,8.828 z"
   id="path1048" />
	<circle
   style="fill:#ffdc69"
   cx="185.379"
   cy="203.034"
   r="17.655001"
   id="circle1050" />
	<circle
   style="fill:#ffdc69"
   cx="256"
   cy="388.414"
   r="17.655001"
   id="circle1052" />
</g>
<circle
   style="fill:#ff6469"
   cx="203.035"
   cy="132.414"
   r="17.655001"
   id="circle1056" />
<path
   style="fill:#468cbe"
   d="m 123.586,211.862 h 17.655 c 4.875,0 8.828,-3.953 8.828,-8.828 v 0 c 0,-4.875 -3.953,-8.828 -8.828,-8.828 h -17.655 c -4.875,0 -8.828,3.953 -8.828,8.828 v 0 c 0.001,4.876 3.953,8.828 8.828,8.828 z"
   id="path1058" />
<path
   style="fill:#ff6469"
   d="m 194.207,282.483 h 17.655 c 4.875,0 8.828,-3.953 8.828,-8.828 v 0 c 0,-4.875 -3.953,-8.828 -8.828,-8.828 h -17.655 c -4.875,0 -8.828,3.953 -8.828,8.828 v 0 c 0.001,4.875 3.953,8.828 8.828,8.828 z"
   id="path1060" />
<path
   style="fill:#ffffff"
   d="m 52.966,282.483 h 17.655 c 4.875,0 8.828,-3.953 8.828,-8.828 v 0 c 0,-4.875 -3.953,-8.828 -8.828,-8.828 H 52.966 c -4.875,0 -8.828,3.953 -8.828,8.828 v 0 c 0,4.875 3.953,8.828 8.828,8.828 z"
   id="path1062" />
<circle
   style="fill:#464655"
   cx="97.104004"
   cy="335.448"
   r="8.8280001"
   id="circle1064" />
<g
   id="g1070"
   transform="translate(-123.586)">
	<circle
   style="fill:#ffffff"
   cx="256"
   cy="335.448"
   r="8.8280001"
   id="circle1066" />
	<circle
   style="fill:#ffffff"
   cx="291.31"
   cy="335.448"
   r="8.8280001"
   id="circle1068" />
</g>
<g
   id="g1072"
   transform="translate(-123.586)">
</g>
<g
   id="g1074"
   transform="translate(-123.586)">
</g>
<g
   id="g1076"
   transform="translate(-123.586)">
</g>
<g
   id="g1078"
   transform="translate(-123.586)">
</g>
<g
   id="g1080"
   transform="translate(-123.586)">
</g>
<g
   id="g1082"
   transform="translate(-123.586)">
</g>
<g
   id="g1084"
   transform="translate(-123.586)">
</g>
<g
   id="g1086"
   transform="translate(-123.586)">
</g>
<g
   id="g1088"
   transform="translate(-123.586)">
</g>
<g
   id="g1090"
   transform="translate(-123.586)">
</g>
<g
   id="g1092"
   transform="translate(-123.586)">
</g>
<g
   id="g1094"
   transform="translate(-123.586)">
</g>
<g
   id="g1096"
   transform="translate(-123.586)">
</g>
<g
   id="g1098"
   transform="translate(-123.586)">
</g>
<g
   id="g1100"
   transform="translate(-123.586)">
</g>
<circle
   style="fill:none;stroke:#000000;stroke-width:0.150223;stroke-miterlimit:4;stroke-dasharray:none"
   id="path4383"
   cx="133.01651"
   cy="273.67734"
   r="17.968031" /><path
   style="fill:#00ffff;stroke:#000000;stroke-width:0.250371;stroke-miterlimit:4;stroke-dasharray:none"
   d="m 148.95847,288.69525 c -1.43319,1.76132 -4.02284,2.02732 -5.78416,0.59414 -1.76132,-1.43318 -2.02733,-4.02284 -0.59415,-5.78416 1.43319,-1.76132 4.02285,-2.02733 5.78417,-0.59414 1.76132,1.43318 2.02732,4.02284 0.59414,5.78416 z"
   id="path3371" /><path
   style="fill:#800000;stroke:#000000;stroke-width:0.250371;stroke-miterlimit:4;stroke-dasharray:none"
   d="m 133.6699,295.56927 c -2.25885,0.23202 -4.27811,-1.41105 -4.51014,-3.6699 -0.23202,-2.25886 1.41105,-4.27812 3.6699,-4.51015 2.25886,-0.23202 4.27812,1.41105 4.51014,3.6699 0.23203,2.25886 -1.41104,4.27812 -3.6699,4.51015 z"
   id="path3369" /><path
   style="fill:#ff0000;stroke:#000000;stroke-width:0.250371;stroke-miterlimit:4;stroke-dasharray:none"
   d="m 117.9986,289.61928 c -1.76132,-1.43319 -2.02733,-4.02284 -0.59415,-5.78416 1.43319,-1.76132 4.02284,-2.02733 5.78416,-0.59414 1.76132,1.43318 2.02733,4.02284 0.59415,5.78416 -1.43319,1.76132 -4.02285,2.02732 -5.78416,0.59414 z"
   id="path3367" /><path
   style="fill:#000080;stroke:#000000;stroke-width:0.250371;stroke-miterlimit:4;stroke-dasharray:none"
   d="m 111.12458,274.33071 c -0.23203,-2.25885 1.41104,-4.27811 3.6699,-4.51014 2.25885,-0.23202 4.27811,1.41105 4.51014,3.6699 0.23203,2.25886 -1.41104,4.27812 -3.6699,4.51014 -2.25885,0.23203 -4.27811,-1.41104 -4.51014,-3.6699 z"
   id="path3365" /><path
   style="fill:#ffff00;stroke:#000000;stroke-width:0.250371;stroke-miterlimit:4;stroke-dasharray:none"
   d="m 117.07457,258.65941 c 1.43318,-1.76132 4.02284,-2.02733 5.78416,-0.59415 1.76132,1.43319 2.02732,4.02285 0.59414,5.78416 -1.43319,1.76132 -4.02284,2.02733 -5.78416,0.59415 -1.76132,-1.43319 -2.02733,-4.02285 -0.59414,-5.78416 z"
   id="path3363" /><path
   style="fill:#008000;stroke:#000000;stroke-width:0.250371;stroke-miterlimit:4;stroke-dasharray:none"
   d="m 132.36313,251.78539 c 2.25886,-0.23202 4.27811,1.41104 4.51014,3.6699 0.23203,2.25885 -1.41104,4.27811 -3.6699,4.51014 -2.25885,0.23203 -4.27811,-1.41104 -4.51014,-3.6699 -0.23202,-2.25885 1.41105,-4.27811 3.6699,-4.51014 z"
   id="path3361" /><path
   style="fill:#00ff00;stroke:#000000;stroke-width:0.250371;stroke-miterlimit:4;stroke-dasharray:none"
   d="m 148.03444,257.73538 c 1.76132,1.43318 2.02732,4.02284 0.59414,5.78416 -1.43319,1.76132 -4.02284,2.02732 -5.78416,0.59414 -1.76132,-1.43319 -2.02733,-4.02284 -0.59414,-5.78416 1.43318,-1.76132 4.02284,-2.02733 5.78416,-0.59414 z"
   id="path3359" /><path
   style="fill:#008080;stroke:#000000;stroke-width:0.250371;stroke-miterlimit:4;stroke-dasharray:none"
   d="m 154.90845,273.02394 c 0.23203,2.25886 -1.41104,4.27811 -3.66989,4.51014 -2.25886,0.23203 -4.27812,-1.41104 -4.51015,-3.6699 -0.23202,-2.25885 1.41105,-4.27811 3.6699,-4.51014 2.25886,-0.23202 4.27812,1.41105 4.51014,3.6699 z"
   id="path3252" /><circle
   style="fill:none;stroke:#000000;stroke-width:1.13386;stroke-miterlimit:4;stroke-dasharray:none"
   id="path4383-0"
   cx="457.0542"
   cy="178.03555"
   r="135.62006" /><path
   style="fill:#00ffff;stroke:#000000;stroke-width:1.88976;stroke-miterlimit:4;stroke-dasharray:none"
   d="m 577.38173,291.38861 c -10.81746,13.29418 -30.36382,15.30194 -43.658,4.48448 -13.29419,-10.81746 -15.30195,-30.36382 -4.48449,-43.658 10.81746,-13.29415 30.36382,-15.30195 43.65801,-4.48449 13.29418,10.81747 15.30194,30.36382 4.48448,43.65801 z"
   id="path3371-3" /><path
   style="fill:#800000;stroke:#000000;stroke-width:1.88976;stroke-miterlimit:4;stroke-dasharray:none"
   d="m 461.9859,343.27268 c -17.04951,1.75128 -32.29058,-10.65037 -34.04188,-27.69986 -1.75131,-17.04952 10.65034,-32.29058 27.69985,-34.0419 17.04951,-1.75128 32.29058,10.65037 34.04188,27.69985 1.7513,17.04953 -10.65035,32.29059 -27.69985,34.04191 z"
   id="path3369-0" /><path
   style="fill:#ff0000;stroke:#000000;stroke-width:1.88976;stroke-miterlimit:4;stroke-dasharray:none"
   d="m 343.70116,298.36305 c -13.29418,-10.81747 -15.30196,-30.36382 -4.48449,-43.65801 10.81746,-13.29418 30.36381,-15.30195 43.65799,-4.48448 13.29418,10.81746 15.30196,30.36381 4.4845,43.658 -10.81747,13.29419 -30.36382,15.30195 -43.658,4.48449 z"
   id="path3367-4" /><path
   style="fill:#000080;stroke:#000000;stroke-width:1.88976;stroke-miterlimit:4;stroke-dasharray:none"
   d="m 291.81711,182.96721 c -1.7513,-17.04951 10.65034,-32.29058 27.69985,-34.04188 17.04951,-1.75131 32.29058,10.65034 34.04188,27.69985 1.75131,17.04952 -10.65034,32.29058 -27.69985,34.04186 -17.04951,1.75132 -32.29058,-10.65033 -34.04188,-27.69983 z"
   id="path3365-4" /><path
   style="fill:#ffff00;stroke:#000000;stroke-width:1.88976;stroke-miterlimit:4;stroke-dasharray:none"
   d="m 336.72673,64.682466 c 10.81746,-13.294182 30.36381,-15.301958 43.658,-4.484492 13.29417,10.817465 15.30195,30.363817 4.48449,43.657996 -10.81747,13.29418 -30.36382,15.30196 -43.658,4.4845 -13.29418,-10.817473 -15.30196,-30.363825 -4.48449,-43.658004 z"
   id="path3363-4" /><path
   style="fill:#008000;stroke:#000000;stroke-width:1.88976;stroke-miterlimit:4;stroke-dasharray:none"
   d="m 452.12256,12.798419 c 17.04951,-1.751304 32.29058,10.650342 34.04188,27.699852 1.75131,17.049505 -10.65034,32.290575 -27.69985,34.04188 -17.0495,1.751304 -32.29058,-10.650346 -34.04188,-27.699852 -1.7513,-17.049509 10.65035,-32.290579 27.69985,-34.04188 z"
   id="path3361-4" /><path
   style="fill:#00ff00;stroke:#000000;stroke-width:1.88976;stroke-miterlimit:4;stroke-dasharray:none"
   d="m 570.40729,57.708036 c 13.29419,10.817462 15.30195,30.363814 4.48449,43.658004 -10.81746,13.29417 -30.36382,15.30195 -43.65797,4.48449 -13.29418,-10.817474 -15.30198,-30.363823 -4.48452,-43.658001 10.81746,-13.294183 30.36382,-15.301958 43.658,-4.484493 z"
   id="path3359-7" /><path
   style="fill:#008080;stroke:#000000;stroke-width:1.88976;stroke-miterlimit:4;stroke-dasharray:none"
   d="m 622.29136,173.10387 c 1.75129,17.04951 -10.65036,32.29058 -27.69985,34.0419 -17.04953,1.75128 -32.29058,-10.65037 -34.0419,-27.69987 -1.75129,-17.0495 10.65036,-32.29058 27.69985,-34.04188 17.04953,-1.7513 32.29058,10.65035 34.0419,27.69985 z"
   id="path3252-6" /></svg>
